# xmcd
#
# Track frame offsets:
#	150
#	26965
#	39860
#	56180
#	71362
#	90732
#	106352
#	122647
#
# Disc length: 1952 seconds
#
# Revision: 1
# Processed by: cddbd v1.5.2PL0 Copyright (c) Steve Scherf et al.
# Submitted via: EasyCDDAExtractor 5.1.0
#
DISCID=68079e08
DTITLE=Mississipi Fred Mc Dowell - Train I ride
DYEAR=1900
DGENRE=blues
TTITLE0=Levee Camp Blues
TTITLE1=You Gotta Move
TTITLE2=Get Right Church
TTITLE3=Big Fat Mama
TTITLE4=Unknown Blues
TTITLE5=Good Morning Little School Girl
TTITLE6=Keep Your Lamp Trimmed And Burning
TTITLE7=Train I Ride
EXTD=
EXTT0=
EXTT1=
EXTT2=
EXTT3=
EXTT4=
EXTT5=
EXTT6=
EXTT7=
PLAYORDER=
